<svg xmlns="http://www.w3.org/2000/svg" xmlns:xlink="http://www.w3.org/1999/xlink" viewBox="0 0 744 100"><defs><symbol id="k" viewBox="0 0 744 100"><use xlink:href="#a" x="2" width="68" height="100"/><use xlink:href="#b" x="78" width="68" height="100"/><use xlink:href="#c" x="154" width="30" height="100"/><use xlink:href="#d" x="192" width="68" height="100"/><use xlink:href="#e" x="292" width="68" height="100"/><use xlink:href="#f" x="392" width="20" height="100"/><use xlink:href="#g" x="420" width="68" height="100"/><use xlink:href="#h" x="496" width="20" height="100"/><use xlink:href="#g" x="524" width="68" height="100"/><use xlink:href="#i" x="600" width="68" height="100"/><use xlink:href="#j" x="676" width="68" height="100"/></symbol><symbol id="e" viewBox="0 0 68 100"><rect x="1" y="3" rx="5" ry="5" width="66" height="94" fill="indigo"/><path d="M0 93V7a5 5 0 0 1 5-5h58a5 5 0 0 1 5 5v86a5 5 0 0 1-5 5H33V88h20a5 5 0 0 0 5-5V17a5 5 0 0 0-5-5H15a5 5 0 0 0-5 5v66a5 5 0 0 0 5 5h20v10H5a5 5 0 0 1-5-5z" fill="#fff"/><path d="M15 80.5v-61a2.5 2.5 0 0 1 2.5-2.5h33a2.5 2.5 0 0 1 2.5 2.5v10a2.5 2.5 0 0 1-2.5 2.5h-5a2.5 2.5 0 0 1-2.5-2.5 2.5 2.5 0 0 0-2.5-2.5h-13a2.5 2.5 0 0 0-2.5 2.5v41a2.5 2.5 0 0 0 2.5 2.5h13a2.5 2.5 0 0 0 2.5-2.5 2.5 2.5 0 0 1 2.5-2.5h5a2.5 2.5 0 0 1 2.5 2.5v10a2.5 2.5 0 0 1-2.5 2.5h-33a2.5 2.5 0 0 1-2.5-2.5z" fill="#fff"/></symbol><symbol id="d" viewBox="0 0 68 100"><rect x="19" y="3" rx="5" ry="5" width="30" height="94" fill="indigo"/><path d="M0 93V55a5 5 0 0 1 5-5 5 5 0 0 1-5-5V7a5 5 0 0 1 5-5h30v20H25a5 5 0 0 0-5 5v8a5 5 0 0 0 5 5h18a5 5 0 0 0 5-5v-8a5 5 0 0 0-5-5H33V2h30a5 5 0 0 1 5 5v38a5 5 0 0 1-5 5 5 5 0 0 1 5 5v38a5 5 0 0 1-5 5H33V78h10a5 5 0 0 0 5-5v-8a5 5 0 0 0-5-5H25a5 5 0 0 0-5 5v8a5 5 0 0 0 5 5h10v20H5a5 5 0 0 1-5-5z" fill="#fff"/></symbol><symbol id="c" viewBox="0 0 30 100"><path d="M10 93V27a5 5 0 0 0-5-5 5 5 0 0 1-5-5V7a5 5 0 0 1 5-5h20a5 5 0 0 1 5 5v86a5 5 0 0 1-5 5H15a5 5 0 0 1-5-5z" fill="#fff"/></symbol><symbol id="a" viewBox="0 0 68 100"><path d="M0 93V50a10 10 0 0 1 10-10h33a5 5 0 0 0 5-5v-8a5 5 0 0 0-5-5H25a5 5 0 0 0-5 5 5 5 0 0 1-5 5H5a5 5 0 0 1-5-5V7a5 5 0 0 1 5-5h58a5 5 0 0 1 5 5v43a10 10 0 0 1-10 10H25a5 5 0 0 0-5 5v8a5 5 0 0 0 5 5h38a5 5 0 0 1 5 5v10a5 5 0 0 1-5 5H5a5 5 0 0 1-5-5z" fill="#fff"/></symbol><symbol id="b" viewBox="0 0 68 100"><rect x="1" y="3" rx="5" ry="5" width="66" height="94" fill="indigo"/><path d="M0 93V7a5 5 0 0 1 5-5h58a5 5 0 0 1 5 5v86a5 5 0 0 1-5 5H33V78h10a5 5 0 0 0 5-5V27a5 5 0 0 0-5-5H25a5 5 0 0 0-5 5v46a5 5 0 0 0 5 5h10v20H5a5 5 0 0 1-5-5z" fill="#fff"/></symbol><symbol id="f" viewBox="0 0 20 100"><rect x="1" y="79" rx="5" ry="5" width="18" height="18" fill="indigo"/><rect y="2" rx="5" ry="5" width="20" height="70" fill="#fff"/><path d="M0 93V83a5 5 0 0 1 5-5h10a5 5 0 0 1 5 5v10a5 5 0 0 1-5 5H9v-9h6a2 2 0 0 0 2-2v-1a2 2 0 0 0-2-2H5a2 2 0 0 0-2 2v1a2 2 0 0 0 2 2h6v9H5a5 5 0 0 1-5-5z" fill="#fff"/><rect x="6" y="85" rx="1" ry="1" width="2" height="3" fill="#fff"/><rect x="12" y="85" rx="1" ry="1" width="2" height="3" fill="#fff"/></symbol><symbol id="j" viewBox="0 0 68 100"><path d="M0 93V7a5 5 0 0 1 5-5h10s5 0 7.5 5l43 86s2.5 5-2.5 5H53s-5 0-7.5-5L22 46s-2-4-2 0v47a5 5 0 0 1-5 5H5a5 5 0 0 1-5-5z" fill="#fff"/></symbol><symbol id="h" viewBox="0 0 20 100"><rect y="2" rx="5" ry="5" width="20" height="96" fill="#fff"/></symbol><symbol id="i" viewBox="0 0 68 100"><path d="M0 93V73a5 5 0 0 1 5-5h10a5 5 0 0 1 5 5 5 5 0 0 0 5 5h18a5 5 0 0 0 5-5V7a5 5 0 0 1 5-5h10a5 5 0 0 1 5 5v86a5 5 0 0 1-5 5H5a5 5 0 0 1-5-5z" fill="#fff"/></symbol><symbol id="g" viewBox="0 0 68 100"><path d="M0 93V7a5 5 0 0 1 5-5h10s5 0 7.5 5L46 54s2 4 2 0V7a5 5 0 0 1 5-5h10a5 5 0 0 1 5 5v86a5 5 0 0 1-5 5H53s-5 0-7.5-5L22 46s-2-4-2 0v47a5 5 0 0 1-5 5H5a5 5 0 0 1-5-5z" fill="#fff"/></symbol></defs><use xlink:href="#k" width="744" height="100"/></svg>