<svg xmlns="http://www.w3.org/2000/svg" xmlns:xlink="http://www.w3.org/1999/xlink" viewBox="0 0 100 100"><defs><symbol id="b" viewBox="0 0 20 100"><rect y="2" rx="5" ry="5" width="20" height="70" fill="indigo"/><use xlink:href="#a" y="78" width="20" height="20"/></symbol><symbol id="d" viewBox="0 0 100 100"><use xlink:href="#b" x="2" width="20" height="100"/><use xlink:href="#c" x="30" width="68" height="100"/></symbol><symbol id="c" viewBox="0 0 68 100"><path d="M0 93V7s0-5 5-5h10s5 0 7.5 5L46 54s2 4 2 0V7s0-5 5-5h10s5 0 5 5v86s0 5-5 5H53s-5 0-7.5-5L22 46s-2-4-2 0v47s0 5-5 5H5s-5 0-5-5z" fill="indigo"/></symbol><symbol id="a" viewBox="0 0 100 100"><path d="M50 0h25a25 25 0 0 1 25 25v50a25 25 0 0 1-25 25H50V55h25a10 10 0 0 0 10-10v-5a10 10 0 0 0-10-10H25a10 10 0 0 0-10 10v5a10 10 0 0 0 10 10h35v45H25A25 25 0 0 1 0 75V25A25 25 0 0 1 25 0h25z" fill="indigo"/><rect x="30" y="35" rx="5" ry="5" width="10" height="15" fill="indigo"/><rect x="60" y="35" rx="5" ry="5" width="10" height="15" fill="indigo"/></symbol></defs><use xlink:href="#d" width="100" height="100"/></svg>