<svg xmlns="http://www.w3.org/2000/svg" xmlns:xlink="http://www.w3.org/1999/xlink" viewBox="0 0 100 100"><defs><symbol id="a" viewBox="0 0 100 100"><path d="M50 0h25a25 25 0 0 1 25 25v50a25 25 0 0 1-25 25H50V55h25a10 10 0 0 0 10-10v-5a10 10 0 0 0-10-10H25a10 10 0 0 0-10 10v5a10 10 0 0 0 10 10h35v45H25A25 25 0 0 1 0 75V25A25 25 0 0 1 25 0h25z" fill="indigo"/><rect x="30" y="35" rx="5" ry="5" width="10" height="15" fill="indigo"/><rect x="60" y="35" rx="5" ry="5" width="10" height="15" fill="indigo"/></symbol></defs><use xlink:href="#a" width="100" height="100"/></svg>