<?xml version="1.0" encoding="utf-8"?>
<svg xmlns="http://www.w3.org/2000/svg" xmlns:xlink="http://www.w3.org/1999/xlink" version="1.1" viewBox="0 0 744 100">
  <defs>
    <symbol id="copyright" viewBox="0 0 744 100">
      <use xlink:href="#digit-two" x="2" y="0" width="68" height="100" />
      <use xlink:href="#digit-zero" x="78" y="0" width="68" height="100" />
      <use xlink:href="#digit-one" x="154" y="0" width="30" height="100" />
      <use xlink:href="#digit-eight" x="192" y="0" width="68" height="100" />

      <use xlink:href="#copyright-sign" x="292" y="0" width="68" height="100" />

      <use xlink:href="#exclamation-mark" x="392" y="0" width="20" height="100" />
      <use xlink:href="#latin-capital-letter-n" x="420" y="0" width="68" height="100" />
      <use xlink:href="#latin-capital-letter-i" x="496" y="0" width="20" height="100" />
      <use xlink:href="#latin-capital-letter-n" x="524" y="0" width="68" height="100" />
      <use xlink:href="#latin-capital-letter-j" x="600" y="0" width="68" height="100" />
      <use xlink:href="#latin-capital-letter-a" x="676" y="0" width="68" height="100" />
    </symbol>

    <symbol id="copyright-sign" viewBox="0 0 68 100">
      <path d="M 0 93 v -86 a 5 5 0 0 1 5 -5 h 58 a 5 5 0 0 1 5 5 v 86 a 5 5 0 0 1 -5 5 h -30 v -10 h 20 a 5 5 0 0 0 5 -5 v -66 a 5 5 0 0 0 -5 -5 h -38 a 5 5 0 0 0 -5 5 v 66 a 5 5 0 0 0 5 5 h 20 v 10 h -30 a 5 5 0 0 1 -5 -5 Z" fill="white" stroke="none" />
      <path d="M 15 80.5 v -61 a 2.5 2.5 0 0 1 2.5 -2.5 h 33 a 2.5 2.5 0 0 1 2.5 2.5 v 10 a 2.5 2.5 0 0 1 -2.5 2.5 h -5 a 2.5 2.5 0 0 1 -2.5 -2.5 a 2.5 2.5 0 0 0 -2.5 -2.5 h -13 a 2.5 2.5 0 0 0 -2.5 2.5 v 41 a 2.5 2.5 0 0 0 2.5 2.5 h 13 a 2.5 2.5 0 0 0 2.5 -2.5 a 2.5 2.5 0 0 1 2.5 -2.5 h 5 a 2.5 2.5 0 0 1 2.5 2.5 v 10 a 2.5 2.5 0 0 1 -2.5 2.5 h -33 a 2.5 2.5 0 0 1 -2.5 -2.5 Z" fill="white" stroke="none" />
    </symbol>

    <symbol id="digit-eight" viewBox="0 0 68 100">
      <path d="M 0 93 v -38 a 5 5 0 0 1 5 -5 a 5 5 0 0 1 -5 -5 v -38 a 5 5 0 0 1 5 -5 h 30 v 20 h -10 a 5 5 0 0 0 -5 5 v 8 a 5 5 0 0 0 5 5 h 18 a 5 5 0 0 0 5 -5 v -8 a 5 5 0 0 0 -5 -5 h -10 v -20 h 30 a 5 5 0 0 1 5 5 v 38 a 5 5 0 0 1 -5 5 a 5 5 0 0 1 5 5 v 38 a 5 5 0 0 1 -5 5 h -30 v -20 h 10 a 5 5 0 0 0 5 -5 v -8 a 5 5 0 0 0 -5 -5 h -18 a 5 5 0 0 0 -5 5 v 8 a 5 5 0 0 0 5 5 h 10 v 20 h -30 a 5 5 0 0 1 -5 -5 Z" fill="white" stroke="none" />
    </symbol>

    <symbol id="digit-one" viewBox="0 0 30 100">
      <path d="M 10 93 v -66 a 5 5 0 0 0 -5 -5 a 5 5 0 0 1 -5 -5 v -10 a 5 5 0 0 1 5 -5 h 20 a 5 5 0 0 1 5 5 v 86 a 5 5 0 0 1 -5 5 h -10 a 5 5 0 0 1 -5 -5 Z" fill="white" stroke="none" />
    </symbol>

    <symbol id="digit-two" viewBox="0 0 68 100">
      <path d="M 0 93 V 50 A 10 10 0 0 1 10 40 H 43 A 5 5 0 0 0 48 35 V 27 A 5 5 0 0 0 43 22 H 25 A 5 5 0 0 0 20 27 A 5 5 0 0 1 15 32 H 5 A 5 5 0 0 1 0 27 V 7 A 5 5 0 0 1 5 2 H 63 A 5 5 0 0 1 68 7 V 50 A 10 10 0 0 1 58 60 H 25 A 5 5 0 0 0 20 65 V 73 A 5 5 0 0 0 25 78 H 63 A 5 5 0 0 1 68 83 V 93 A 5 5 0 0 1 63 98 H 5 A 5 5 0 0 1 0 93 Z" fill="white" stroke="none" />
    </symbol>

    <symbol id="digit-zero" viewBox="0 0 68 100">
      <path d="M 0 93 v -86 a 5 5 0 0 1 5 -5 h 58 a 5 5 0 0 1 5 5 v 86 a 5 5 0 0 1 -5 5 h -30 v -20 h 10 a 5 5 0 0 0 5 -5 v -46 a 5 5 0 0 0 -5 -5 h -18 a 5 5 0 0 0 -5 5 v 46 a 5 5 0 0 0 5 5 h 10 v 20 h -30 a 5 5 0 0 1 -5 -5 Z" fill="white" stroke="none" />
    </symbol>

    <symbol id="exclamation-mark" viewBox="0 0 20 100">
      <rect x="0" y="2" rx="5" ry="5" width="20" height="70" fill="white" stroke="none" />
      <path d="M 0 93 v -10 a 5 5 0 0 1 5 -5 h 10 a 5 5 0 0 1 5 5 v 10 a 5 5 0 0 1 -5 5 h -6 v -9 h 6 a 2 2 0 0 0 2 -2 v -1 a 2 2 0 0 0 -2 -2 h -10 a 2 2 0 0 0 -2 2 v 1 a 2 2 0 0 0 2 2 h 6 v 9 h -6 a 5 5 0 0 1 -5 -5 Z" fill="white" stroke="none" />
      <rect x="6" y="85" rx="1" ry="1" width="2" height="3" fill="white" stroke="none" />
      <rect x="12" y="85" rx="1" ry="1" width="2" height="3" fill="white" stroke="none" />
    </symbol>

    <symbol id="latin-capital-letter-a" viewBox="0 0 68 100">
      <path d="M 0 93 v -86 a 5 5 0 0 1 5 -5 h 10 c 0 0, 5 0, 7.5 5 l 43 86 c 0 0, 2.5 5, -2.5 5 h -10 c 0 0, -5 0, -7.5 -5 l -23.5 -47 c 0 0, -2 -4, -2 0 v 47 a 5 5 0 0 1 -5 5 h -10 a 5 5 0 0 1 -5 -5 Z" fill="white" stroke="none" />
    </symbol>

    <symbol id="latin-capital-letter-c" viewBox="0 0 68 100">
      <path d="M 0 93 v -86 a 5 5 0 0 1 5 -5 h 58 a 5 5 0 0 1 5 5 v 20 a 5 5 0 0 1 -5 5 h -10 a 5 5 0 0 1 -5 -5 a 5 5 0 0 0 -5 -5 h -18 a 5 5 0 0 0 -5 5 v 46 a 5 5 0 0 0 5 5 h 18 a 5 5 0 0 0 5 -5 a 5 5 0 0 1 5 -5 h 10 a 5 5 0 0 1 5 5 v 20 a 5 5 0 0 1 -5 5 h -58 a 5 5 0 0 1 -5 -5 Z" fill="white" stroke="none" />
    </symbol>

    <symbol id="latin-capital-letter-i" viewBox="0 0 20 100">
      <rect x="0" y="2" rx="5" ry="5" width="20" height="96" fill="white" stroke="none" />
    </symbol>

    <symbol id="latin-capital-letter-j" viewBox="0 0 68 100">
      <path d="M 0 93 v -20 a 5 5 0 0 1 5 -5 h 10 a 5 5 0 0 1 5 5 a 5 5 0 0 0 5 5 h 18 a 5 5 0 0 0 5 -5 v -66 a 5 5 0 0 1 5 -5 h 10 a 5 5 0 0 1 5 5 v 86 a 5 5 0 0 1 -5 5 h -58 a 5 5 0 0 1 -5 -5 Z" fill="white" stroke="none" />
    </symbol>

    <symbol id="latin-capital-letter-n" viewBox="0 0 68 100">
      <path d="M 0 93 v -86 a 5 5 0 0 1 5 -5 h 10 c 0 0, 5 0, 7.5 5 l 23.5 47 c 0 0, 2 4, 2 0 v -47 a 5 5 0 0 1 5 -5 h 10 a 5 5 0 0 1 5 5 v 86 a 5 5 0 0 1 -5 5 h -10 c 0 0, -5 0, -7.5 -5 l -23.5 -47 c 0 0, -2 -4, -2 0 v 47 a 5 5 0 0 1 -5 5 h -10 a 5 5 0 0 1 -5 -5 Z" fill="white" stroke="none" />
    </symbol>
  </defs>

  <use xlink:href="#copyright" x="0" y="0" width="744" height="100" />
</svg>
