<?xml version="1.0" encoding="UTF-8" standalone="no"?>
<svg xmlns="http://www.w3.org/2000/svg" xmlns:xlink="http://www.w3.org/1999/xlink" version="1.1" viewBox="0 0 744 100">
  <defs>
    <symbol id="0-char" viewBox="0 0 68 100">
      <rect x="0" y="0" width="68" height="100" fill="white" stroke="none" mask="url(#0-mask)" />
    </symbol>

    <mask id="0-mask" maskUnits="userSpaceOnUse" x="0" y="0" width="68" height="100">
      <rect x="0" y="2" rx="5" ry="5" width="68" height="96" fill="white" stroke="none" />
      <rect x="20" y="22" rx="5" ry="5" width="28" height="56" fill="black" stroke="none" />
    </mask>

    <symbol id="1-char" viewBox="0 0 30 100">
      <path d="M 0 17 V 7 C 0 7, 0 2, 5 2 H 25 C 25 2, 30 2, 30 7 V 93 C 30 93, 30 98, 25 98 H 15 C 15 98, 10 98, 10 93 V 27 C 10 27, 10 22, 5 22 C 5 22, 0 22, 0 17 Z" fill="white" stroke="none" />
    </symbol>

    <symbol id="2-char" viewBox="0 0 68 100">
      <path d="M 0 27 V 7 C 0 7, 0 2, 5 2 H 63 C 63 2, 68 2, 68 7 V 17 C 68 17, 68 22, 63.5 27.5 L 28.5 73 C 28.5 73, 25 78, 30 78 H 43 C 43 78, 48 78, 48 73 C 48 73, 48 68, 53 68 H 63 C 63 68, 68 68, 68 73 V 93 C 68 93, 68 98, 63 98 H 5 C 5 98, 0 98, 0 93 V 83 C 0 83, 0 78, 5 71.5 L 39 27 C 39 27, 43 22, 38 22 H 25 C 25 22, 20 22, 20 27 C 20 27, 20 32, 15 32 H 5 C 5 32, 0 32, 0 27 Z" fill="white" stroke="none" />
    </symbol>

    <symbol id="7-char" viewBox="0 0 68 100">
      <path d="M 0 27 V 7 C 0 7, 0 2, 5 2 H 63 C 63 2, 68 2, 68 7 V 17 C 68 17, 68 22, 65 27 L 23 93 C 23 93, 20 98, 15 98 H 5 C 5 98, 0 98, 3 93 L 44.5 27 C 44.5 27, 48 22, 43 22 H 25 C 25 22, 20 22, 20 27 C 20 27, 20 32, 15 32 H 5 C 5 32, 0 32, 0 27 Z" fill="white" stroke="none" />
    </symbol>

    <symbol id="copyright-char" viewBox="0 0 68 100">
      <rect x="0" y="0" width="68" height="100" fill="white" stroke="none" mask="url(#copyright-mask)" />
      <use xlink:href="#c-char" x="7" y="7" width="54" height="86" />
    </symbol>

    <mask id="copyright-mask" maskUnits="userSpaceOnUse" x="0" y="0" width="100" height="100">
      <rect x="0" y="2" rx="5" ry="5" width="68" height="96" fill="white" stroke="none" />
      <rect x="5" y="7" rx="2.5" ry="2.5" width="58" height="86" fill="black" stroke="none" />
    </mask>

    <symbol id="dot" viewBox="0 0 100 100">
      <rect x="0" y="0" width="100" height="100" fill="white" stroke="none" mask="url(#dot-mask)" />
      <rect x="30" y="35" rx="5" ry="5" width="10" height="15" fill="white" stroke="none" />
      <rect x="60" y="35" rx="5" ry="5" width="10" height="15" fill="white" stroke="none" />
    </symbol>

    <mask id="dot-mask" maskUnits="userSpaceOnUse" x="0" y="0" width="100" height="100">
      <rect x="0" y="0" rx="25" ry="25" width="100" height="100" fill="white" stroke="none" />
      <rect x="15" y="30" rx="10" ry="10" width="70" height="25" fill="black" stroke="none" />
    </mask>

    <symbol id="exclamation-char" viewBox="0 0 20 100">
      <rect x="0" y="2" rx="5" ry="5" width="20" height="70" fill="white" stroke="none" />
      <use xlink:href="#dot" x="0" y="78" width="20" height="20" />
    </symbol>

    <symbol id="a-char" viewBox="0 0 68 100">
      <path d="M 0 93 V 7 C 0 7, 0 2, 5 2 H 15 C 15 2, 20 2, 22.5 7 L 65.5 93 C 65.5 93, 68 98, 63 98 H 53 C 53 98, 48 98, 45.5 93 L 22 46 C 22 46, 20 42, 20 46 V 93 C 20 93, 20 98, 15 98 H 5 C 5 98, 0 98, 0 93 Z" fill="white" stroke="none" />
    </symbol>

    <symbol id="c-char" viewBox="0 0 68 100">
      <path d="M 0 93 V 7 C 0 7, 0 2, 5 2 H 63 C 63 2, 68 2, 68 7 V 27 C 68 27, 68 32, 63 32 H 53 C 53 32, 48 32, 48 27 C 48 27, 48 22, 43 22 H 25 C 25 22, 20 22, 20 27 V 73 C 20 73, 20 78, 25 78 H 43 C 43 78, 48 78, 48 73 C 48 73, 48 68, 53 68 H 63 C 63 68, 68 68, 68 73 V 93 C 68 93, 68 98, 63 98 H 5 C 5 98, 0 98, 0 93 Z" fill="white" stroke="none" />
    </symbol>

    <symbol id="i-char" viewBox="0 0 20 100">
      <rect x="0" y="2" rx="5" ry="5" width="20" height="96" fill="white" stroke="none" />
    </symbol>

    <symbol id="j-char" viewBox="0 0 68 100">
      <path d="M 0 93 V 73 C 0 73, 0 68, 5 68 H 15 C 15 68, 20 68, 20 73 C 20 73, 20 78, 25 78 H 43 C 43 78, 48 78, 48 73 V 27 C 48 27, 48 22, 43 22 H 39 C 39 22, 34 22, 34 17 V 7 C 34 7, 34 2, 39 2 H 63 C 63 2, 68 2, 68 7 V 93 C 68 93, 68 98, 63 98 H 5 C 5 98, 0 98, 0 93 Z" fill="white" stroke="none" />
    </symbol>

    <symbol id="n-char" viewBox="0 0 68 100">
      <path d="M 0 93 V 7 C 0 7, 0 2, 5 2 H 15 C 15 2, 20 2, 22.5 7 L 46 54 C 46 54, 48 58, 48 54 V 7 C 48 7, 48 2, 53 2 H 63 C 63 2, 68 2, 68 7 V 93 C 68 93, 68 98, 63 98 H 53 C 53 98, 48 98, 45.5 93 L 22 46 C 22 46, 20 42, 20 46 V 93 C 20 93, 20 98, 15 98 H 5 C 5 98, 0 98, 0 93 Z" fill="white" stroke="none" />
    </symbol>
  </defs>

  <use xlink:href="#2-char" x="2" y="0" width="68" height="100" />
  <use xlink:href="#0-char" x="78" y="0" width="68" height="100" />
  <use xlink:href="#1-char" x="154" y="0" width="30" height="100" />
  <use xlink:href="#7-char" x="192" y="0" width="68" height="100" />

  <use xlink:href="#copyright-char" x="292" y="0" width="68" height="100" />

  <use xlink:href="#exclamation-char" x="392" y="0" width="20" height="100" />
  <use xlink:href="#n-char" x="420" y="0" width="68" height="100" />
  <use xlink:href="#i-char" x="496" y="0" width="20" height="100" />
  <use xlink:href="#n-char" x="524" y="0" width="68" height="100" />
  <use xlink:href="#j-char" x="600" y="0" width="68" height="100" />
  <use xlink:href="#a-char" x="676" y="0" width="68" height="100" />
</svg>
