<?xml version="1.0" encoding="utf-8"?>
<svg xmlns="http://www.w3.org/2000/svg" xmlns:xlink="http://www.w3.org/1999/xlink" version="1.1" viewBox="0 0 16 16">
  <defs>
    <symbol id="exclamation-char" viewBox="0 0 20 100">
      <rect x="0" y="2" rx="5" ry="5" width="20" height="70" fill="black" stroke="none" />
      <use xlink:href="#ninja" x="0" y="78" width="20" height="20" />
    </symbol>

    <symbol id="logo" viewBox="0 0 100 100">
      <use xlink:href="#exclamation-char" x="2" y="0" width="20" height="100" />
      <use xlink:href="#n-char" x="30" y="0" width="68" height="100" />
    </symbol>

    <symbol id="n-char" viewBox="0 0 68 100">
      <path d="M 0 93 V 7 C 0 7, 0 2, 5 2 H 15 C 15 2, 20 2, 22.5 7 L 46 54 C 46 54, 48 58, 48 54 V 7 C 48 7, 48 2, 53 2 H 63 C 63 2, 68 2, 68 7 V 93 C 68 93, 68 98, 63 98 H 53 C 53 98, 48 98, 45.5 93 L 22 46 C 22 46, 20 42, 20 46 V 93 C 20 93, 20 98, 15 98 H 5 C 5 98, 0 98, 0 93 Z" fill="black" stroke="none" />
    </symbol>

    <symbol id="ninja" viewBox="0 0 100 100">
      <path d="M 50 0 H 75 A 25 25 0 0 1 100 25 V 75 A 25 25 0 0 1 75 100 H 50 V 55 H 75 A 10 10 0 0 0 85 45 V 40 A 10 10 0 0 0 75 30 H 25 A 10 10 0 0 0 15 40 V 45 A 10 10 0 0 0 25 55 H 60 V 100 H 25 A 25 25 0 0 1 0 75 V 25 A 25 25 0 0 1 25 0 H 50 Z" fill="black" stroke="none" />
      <rect x="30" y="35" rx="5" ry="5" width="10" height="15" fill="black" stroke="none" />
      <rect x="60" y="35" rx="5" ry="5" width="10" height="15" fill="black" stroke="none" />
    </symbol>
  </defs>

  <use xlink:href="#logo" x="0" y="0" width="16" height="16" />
</svg>
