<?xml version="1.0" encoding="utf-8"?>
<svg xmlns="http://www.w3.org/2000/svg" xmlns:xlink="http://www.w3.org/1999/xlink" version="1.1" viewBox="0 0 100 100">
  <defs>
    <symbol id="ninja" viewBox="0 0 100 100">
      <g mask="url(#ninja-mask)">
        <rect x="0" y="0" width="100" height="100" fill="#6F5BA6" stroke="none" />
        <rect x="66.64" y="0" width="16.66" height="100" fill="#2571B6" stroke="none" />
        <rect x="49.98" y="0" width="16.66" height="100" fill="#52B75B" stroke="none" />
        <rect x="33.32" y="0" width="16.66" height="100" fill="#E4D567" stroke="none" />
        <rect x="16.66" y="0" width="16.66" height="100" fill="#DF7D3B" stroke="none" />
        <rect x="0" y="0" width="16.66" height="100" fill="#E1473E" stroke="none" />
      </g>
      <rect x="30" y="35" rx="5" ry="5" width="10" height="15" fill="white" stroke="none" />
      <rect x="60" y="35" rx="5" ry="5" width="10" height="15" fill="white" stroke="none" />
    </symbol>

    <mask id="ninja-mask" maskUnits="userSpaceOnUse" x="0" y="0" width="100" height="100">
      <path d="M 50 0 H 75 A 25 25 0 0 1 100 25 V 75 A 25 25 0 0 1 75 100 H 50 V 55 H 75 A 10 10 0 0 0 85 45 V 40 A 10 10 0 0 0 75 30 H 25 A 10 10 0 0 0 15 40 V 45 A 10 10 0 0 0 25 55 H 60 V 100 H 25 A 25 25 0 0 1 0 75 V 25 A 25 25 0 0 1 25 0 H 50 Z" fill="white" stroke="none" />
    </mask>
  </defs>

  <use xlink:href="#ninja" x="0" y="0" width="100" height="100" />
</svg>
