<svg xmlns="http://www.w3.org/2000/svg" xmlns:xlink="http://www.w3.org/1999/xlink" viewBox="0 0 744 100"><defs><symbol id="g" viewBox="0 0 68 100"><path fill="#4B0082" mask="url(#a)" d="M0 0h68v100H0z"/></symbol><mask id="a" maskUnits="userSpaceOnUse" x="0" y="0" width="68" height="100"><rect y="2" rx="5" ry="5" width="68" height="96" fill="#fff"/><rect x="20" y="22" rx="5" ry="5" width="28" height="56"/></mask><symbol id="h" viewBox="0 0 30 100"><path d="M0 17V7s0-5 5-5h20s5 0 5 5v86s0 5-5 5H15s-5 0-5-5V27s0-5-5-5c0 0-5 0-5-5z" fill="#4B0082"/></symbol><symbol id="f" viewBox="0 0 68 100"><path d="M0 27V7s0-5 5-5h58s5 0 5 5v43s0 10-10 10H25s-5 0-5 5v8s0 5 5 5h18s5 0 5-5c0 0 0-5 5-5h10s5 0 5 5v20s0 5-5 5H5s-5 0-5-5V50s0-10 10-10h33s5 0 5-5v-8s0-5-5-5H25s-5 0-5 5c0 0 0 5-5 5H5s-5 0-5-5z" fill="#4B0082"/></symbol><symbol id="i" viewBox="0 0 68 100"><path d="M0 27V7s0-5 5-5h58s5 0 2.5 5l-43 86S20 98 15 98H5s-5 0-2-5l32.5-66s3.5-5-1.5-5h-9s-5 0-5 5c0 0 0 5-5 5H5s-5 0-5-5z" fill="#4B0082"/></symbol><symbol id="j" viewBox="0 0 68 100"><path fill="#4B0082" mask="url(#b)" d="M0 0h68v100H0z"/><use xlink:href="#c" x="15" y="12" width="38" height="76"/></symbol><mask id="b" maskUnits="userSpaceOnUse" x="0" y="0" width="100" height="100"><rect y="2" rx="5" ry="5" width="68" height="96" fill="#fff"/><rect x="10" y="12" rx="2.5" ry="2.5" width="48" height="76"/></mask><symbol id="e" viewBox="0 0 100 100"><path fill="#4B0082" mask="url(#d)" d="M0 0h100v100H0z"/><rect x="30" y="35" rx="5" ry="5" width="10" height="15" fill="#4B0082"/><rect x="60" y="35" rx="5" ry="5" width="10" height="15" fill="#4B0082"/></symbol><mask id="d" maskUnits="userSpaceOnUse" x="0" y="0" width="100" height="100"><rect rx="25" ry="25" width="100" height="100" fill="#fff"/><rect x="15" y="30" rx="10" ry="10" width="70" height="25"/></mask><symbol id="k" viewBox="0 0 20 100"><rect y="2" rx="5" ry="5" width="20" height="70" fill="#4B0082"/><use xlink:href="#e" y="78" width="20" height="20"/></symbol><symbol id="o" viewBox="0 0 68 100"><path d="M0 93V7s0-5 5-5h10s5 0 7.5 5l43 86s2.5 5-2.5 5H53s-5 0-7.5-5L22 46s-2-4-2 0v47s0 5-5 5H5s-5 0-5-5z" fill="#4B0082"/></symbol><symbol id="c" viewBox="0 0 68 100"><path d="M0 93V7s0-5 5-5h58s5 0 5 5v20s0 5-5 5H53s-5 0-5-5c0 0 0-5-5-5H25s-5 0-5 5v46s0 5 5 5h18s5 0 5-5c0 0 0-5 5-5h10s5 0 5 5v20s0 5-5 5H5s-5 0-5-5z" fill="#4B0082"/></symbol><symbol id="m" viewBox="0 0 20 100"><rect y="2" rx="5" ry="5" width="20" height="96" fill="#4B0082"/></symbol><symbol id="n" viewBox="0 0 68 100"><path d="M0 93V73s0-5 5-5h10s5 0 5 5c0 0 0 5 5 5h18s5 0 5-5V27s0-5-5-5h-4s-5 0-5-5V7s0-5 5-5h24s5 0 5 5v86s0 5-5 5H5s-5 0-5-5z" fill="#4B0082"/></symbol><symbol id="l" viewBox="0 0 68 100"><path d="M0 93V7s0-5 5-5h10s5 0 7.5 5L46 54s2 4 2 0V7s0-5 5-5h10s5 0 5 5v86s0 5-5 5H53s-5 0-7.5-5L22 46s-2-4-2 0v47s0 5-5 5H5s-5 0-5-5z" fill="#4B0082"/></symbol></defs><use xlink:href="#f" x="2" width="68" height="100"/><use xlink:href="#g" x="78" width="68" height="100"/><use xlink:href="#h" x="154" width="30" height="100"/><use xlink:href="#i" x="192" width="68" height="100"/><use xlink:href="#j" x="292" width="68" height="100"/><use xlink:href="#k" x="392" width="20" height="100"/><use xlink:href="#l" x="420" width="68" height="100"/><use xlink:href="#m" x="496" width="20" height="100"/><use xlink:href="#l" x="524" width="68" height="100"/><use xlink:href="#n" x="600" width="68" height="100"/><use xlink:href="#o" x="676" width="68" height="100"/></svg>